
<!-- Generator: Adobe Illustrator 23.0.5, SVG Export Plug-In . SVG Version: 6.00 Build 0)  -->
<svg version="1.1" id="Capa_1" xmlns="http://www.w3.org/2000/svg" xmlns:xlink="http://www.w3.org/1999/xlink" x="0px" y="0px"
	 viewBox="0 0 48 44" style="enable-background:new 0 0 48 44;" xml:space="preserve">
<style type="text/css">
	.st0{fill:#59D7A2;fill-opacity:0.5;}
</style>
<g>
	<path class="st0" d="M24.4,19.4L32,6.6L17.3,8.2l2.2,3.5L1.6,23.2l2.7,4.2l17.9-11.6L24.4,19.4z"/>
	<path d="M46.9,5.5l1-3.6c0.1-0.3,0-0.6-0.2-0.8c-0.2-0.2-0.5-0.4-0.7-0.4h-9.8c-0.5,0-0.9,0.4-0.9,0.9v15h-2.8
		c-0.5,0-0.9,0.4-0.9,0.9v3.9H30c-0.5,0-0.9,0.4-0.9,0.9v4.9H15.5c-0.5,0-0.9,0.4-0.9,0.9v4.9H0.9c-0.5,0-0.9,0.4-0.9,0.9v8.3
		c0,0.5,0.4,0.9,0.9,0.9h43.6c0.5,0,0.9-0.4,0.9-0.9v-20c0-0.5-0.4-0.9-0.9-0.9H42v-3.9c0-0.5-0.4-0.9-0.9-0.9h-2.8v-6.4h8.8
		c0.3,0,0.6-0.1,0.7-0.4C48,9.6,48,9.3,48,9L46.9,5.5z M1.9,35h12.7v6.4H1.9V35z M16.4,29.2h12.7v12.3H16.4V29.2z M43.6,41.4H31
		V23.3h12.7L43.6,41.4L43.6,41.4z M40.1,21.4h-5.6v-2.9h5.6V21.4z M45.1,5.7l0.8,2.6h-7.6V2.6h7.6l-0.8,2.6C45,5.4,45,5.6,45.1,5.7z
		"/>
</g>
</svg>
