<!-- Generator: Adobe Illustrator 23.0.5, SVG Export Plug-In . SVG Version: 6.00 Build 0)  -->
<svg version="1.1" id="Capa_1" xmlns="http://www.w3.org/2000/svg" xmlns:xlink="http://www.w3.org/1999/xlink" x="0px" y="0px"
	 viewBox="0 0 57 58" style="enable-background:new 0 0 57 58;" xml:space="preserve">
<style type="text/css">
	.st0{fill:#95D6EA;fill-opacity:0.3;}
	.st1{fill:#0A0A0B;}
</style>
<path class="st0" d="M17,0.5h23c9.4,0,17,7.6,17,17v23c0,9.4-7.6,17-17,17H17c-9.4,0-17-7.6-17-17v-23C0,8.1,7.6,0.5,17,0.5z"/>
<path class="st1" d="M45.6,41.2H44V17.3c0-1.1-0.9-2-2-2h-3.6c-1.1,0-2,0.9-2,2v23.9h-4.1V28.1c0-1.1-0.9-2-2-2h-3.6
	c-1.1,0-2,0.9-2,2v13.1h-4.1v-6.8c0-1.1-0.9-2-2-2h-3.6c-1.1,0-2,0.9-2,2v6.8h-1.7c-0.4,0-0.7,0.3-0.7,0.7c0,0.4,0.3,0.7,0.7,0.7
	h34.2c0.4,0,0.7-0.3,0.7-0.7C46.3,41.5,46,41.2,45.6,41.2z M19.2,41.2h-4.6v-6.8c0-0.3,0.2-0.5,0.5-0.5h3.6c0.3,0,0.5,0.2,0.5,0.5
	V41.2z M30.9,41.2h-4.6V28.1c0-0.3,0.2-0.5,0.5-0.5h3.6c0.3,0,0.5,0.2,0.5,0.5V41.2z M42.5,41.2h-4.6V17.3c0-0.3,0.2-0.5,0.5-0.5H42
	c0.3,0,0.5,0.2,0.5,0.5V41.2z"/>
</svg>
