<?xml version="1.0" encoding="utf-8"?>
<!-- Generator: Adobe Illustrator 23.0.5, SVG Export Plug-In . SVG Version: 6.00 Build 0)  -->
<svg version="1.1" id="Capa_1" xmlns="http://www.w3.org/2000/svg" xmlns:xlink="http://www.w3.org/1999/xlink" x="0px" y="0px"
	 viewBox="0 0 37 58" style="enable-background:new 0 0 37 58;" xml:space="preserve">
<style type="text/css">
	.st0{fill:#B2F0FB;fill-opacity:0.6;}
	.st1{fill:#0A0A0B;}
</style>
<path class="st0" d="M24.5,31.5c3.3-3.3,3.3-8.6,0-11.9c-3.3-3.3-8.6-3.3-11.9,0c-3.3,3.3-3.3,8.6,0,11.9
	C15.8,34.8,21.2,34.8,24.5,31.5z"/>
<path class="st1" d="M35.5,36.7L31,34.4c0.7-3.8,1.2-7.8,1.2-10.8c0-8.5-3.5-14.4-6.5-17.9C22.4,2,19.2,0.2,19,0.1
	C18.7,0,18.3,0,18,0.1c-0.1,0.1-3.3,1.8-6.6,5.6c-3,3.5-6.5,9.4-6.5,17.9c0,3,0.5,7,1.2,10.8l-4.6,2.3C1,37,0.8,37.5,0.9,38
	l2.5,13.4c0.1,0.4,0.3,0.7,0.7,0.8c0.1,0.1,0.3,0.1,0.4,0.1c0.2,0,0.4-0.1,0.6-0.2l5.1-3.4h2.9C13,49.1,13,49.5,13,49.9
	c0,2.8,3.9,6.9,4.7,7.7c0.2,0.2,0.5,0.3,0.8,0.3c0.3,0,0.6-0.1,0.8-0.3c0.8-0.8,4.7-5,4.7-7.7c0-0.4,0-0.8-0.1-1.2h2.9l5.1,3.4
	c0.2,0.1,0.4,0.2,0.6,0.2c0.1,0,0.3,0,0.4-0.1c0.4-0.1,0.6-0.5,0.7-0.8L36.1,38C36.2,37.5,36,37,35.5,36.7z M13.1,7.3
	c2.2-2.6,4.4-4.2,5.4-4.8c1,0.6,3.2,2.2,5.4,4.8c0.6,0.8,1.2,1.5,1.8,2.3H11.3C11.8,8.8,12.4,8,13.1,7.3z M9.9,11.9h17.1
	c1.9,3.5,2.8,7.5,2.8,11.7c0,6.9-2.9,19.5-3.7,22.9H10.9C10,43.1,7.1,30.6,7.1,23.6C7.1,19.4,8.1,15.4,9.9,11.9z M3.3,38.4l3.2-1.6
	c0.8,4.5,1.8,8.6,2.2,10.3l-3.3,2.2L3.3,38.4z M21.8,49.9c0,1.1-1.7,3.5-3.3,5.3c-1.6-1.8-3.3-4.1-3.3-5.3c0-0.4,0.1-0.8,0.2-1.2
	h6.1C21.7,49.1,21.8,49.5,21.8,49.9z M31.7,49.3l-3.3-2.2c0.4-1.7,1.4-5.8,2.2-10.3l3.2,1.6L31.7,49.3z"/>
<path class="st1" d="M18.5,29.1c2,0,3.6-1.6,3.6-3.6c0-2-1.6-3.6-3.6-3.6c-2,0-3.6,1.6-3.6,3.6S16.5,29.1,18.5,29.1z M18.5,24.2
	c0.7,0,1.4,0.6,1.4,1.4c0,0.7-0.6,1.4-1.4,1.4c-0.7,0-1.4-0.6-1.4-1.4C17.1,24.8,17.8,24.2,18.5,24.2z"/>
</svg>
