<?xml version="1.0" encoding="utf-8"?>
<!-- Generator: Adobe Illustrator 23.0.5, SVG Export Plug-In . SVG Version: 6.00 Build 0)  -->
<svg version="1.1" id="Capa_1" xmlns="http://www.w3.org/2000/svg" xmlns:xlink="http://www.w3.org/1999/xlink" x="0px" y="0px"
	 viewBox="0 0 57 58" style="enable-background:new 0 0 57 58;" xml:space="preserve">
<style type="text/css">
	.st0{fill:#E71CA2;fill-opacity:0.2;}
	.st1{clip-path:url(#SVGID_2_);}
	.st2{fill:#0A0A0B;}
</style>
<g>
	<path class="st0" d="M0,19.9C0,9.2,8.7,0.5,19.4,0.5h18.2C48.3,0.5,57,9.2,57,19.9v18.2c0,10.7-8.7,19.4-19.4,19.4H19.4
		C8.7,57.5,0,48.8,0,38.1V19.9z"/>
	<g>
		<defs>
			<rect id="SVGID_1_" x="11.4" y="11.9" width="34.2" height="34.2"/>
		</defs>
		<clipPath id="SVGID_2_">
			<use xlink:href="#SVGID_1_"  style="overflow:visible;"/>
		</clipPath>
		<g class="st1">
			<path class="st2" d="M28.5,31.9c-2.2,0-4,1.8-4,4c0,2.2,1.8,4,4,4s4-1.8,4-4C32.5,33.6,30.7,31.9,28.5,31.9z M28.5,38.7
				c-1.6,0-2.9-1.3-2.9-2.8c0-1.6,1.3-2.9,2.9-2.9s2.9,1.3,2.9,2.9C31.4,37.4,30.1,38.7,28.5,38.7z"/>
			<path class="st2" d="M37.1,22.7c-2.2,0-4,1.8-4,4s1.8,4,4,4c2.2,0,4-1.8,4-4S39.3,22.7,37.1,22.7z M37.1,29.6
				c-1.6,0-2.8-1.3-2.8-2.9c0-1.6,1.3-2.8,2.8-2.8c1.6,0,2.9,1.3,2.9,2.8C39.9,28.3,38.6,29.6,37.1,29.6z"/>
			<path class="st2" d="M41.6,38.1c-2.2,0-4,1.8-4,3.9l-18.2-1.6c0,0,0,0,0,0c0-1.3-0.6-2.4-1.5-3.1l3-7.1c0.6,0.3,1.2,0.5,1.9,0.5
				c2.2,0,4-1.8,4-4c0-0.6-0.1-1.1-0.3-1.6l9.2-6.2c0.7,0.6,1.6,0.9,2.5,0.9c2.2,0,4-1.8,4-4s-1.8-4-4-4c-2,0-3.7,1.5-3.9,3.4H19.3
				c-0.3-1.9-1.9-3.4-3.9-3.4c-2.2,0-4,1.8-4,4s1.8,4,4,4c2,0,3.7-1.5,3.9-3.4h14.9c0.1,0.6,0.3,1.2,0.7,1.7l-9,6
				c-0.7-0.9-1.8-1.4-3.1-1.4c-2.2,0-4,1.8-4,4c0,1.1,0.4,2.1,1.1,2.8l-3.1,7.2c-0.5-0.2-0.9-0.3-1.5-0.3c-2.2,0-4,1.8-4,4
				c0,2.2,1.8,4,4,4c1.8,0,3.3-1.2,3.8-2.8l18.6,1.6c0.5,1.7,2,2.9,3.8,2.9c2.2,0,4-1.8,4-4C45.6,39.9,43.8,38.1,41.6,38.1z
				 M38.2,13c1.6,0,2.9,1.3,2.9,2.9c0,1.6-1.3,2.9-2.9,2.9c-1.6,0-2.8-1.3-2.8-2.9C35.3,14.3,36.6,13,38.2,13z M15.4,18.7
				c-1.6,0-2.9-1.3-2.9-2.9c0-1.6,1.3-2.9,2.9-2.9s2.8,1.3,2.8,2.9C18.2,17.5,17,18.7,15.4,18.7z M22.8,23.9c1.6,0,2.9,1.3,2.9,2.9
				c0,1.6-1.3,2.9-2.9,2.9c-1.6,0-2.8-1.3-2.8-2.9C20,25.1,21.2,23.9,22.8,23.9z M15.4,43.2c-1.6,0-2.9-1.3-2.9-2.8
				c0-1.6,1.3-2.8,2.9-2.8s2.8,1.3,2.8,2.8C18.2,42,17,43.2,15.4,43.2z M41.6,45c-1.6,0-2.9-1.3-2.9-2.8c0-1.6,1.3-2.8,2.9-2.8
				s2.8,1.3,2.8,2.8C44.5,43.7,43.2,45,41.6,45z"/>
		</g>
	</g>
</g>
</svg>
