<?xml version="1.0" encoding="utf-8"?>
<!-- Generator: Adobe Illustrator 23.0.5, SVG Export Plug-In . SVG Version: 6.00 Build 0)  -->
<svg version="1.1" id="Capa_1" xmlns="http://www.w3.org/2000/svg" xmlns:xlink="http://www.w3.org/1999/xlink" x="0px" y="0px"
	 viewBox="0 0 53 53" style="enable-background:new 0 0 53 53;" xml:space="preserve">
<style type="text/css">
	.st0{clip-path:url(#SVGID_2_);}
	.st1{fill:#0A0A0B;}
	.st2{fill:#59D7A2;fill-opacity:0.5;}
</style>
<g>
	<defs>
		<rect id="SVGID_1_" width="53" height="53"/>
	</defs>
	<clipPath id="SVGID_2_">
		<use xlink:href="#SVGID_1_"  style="overflow:visible;"/>
	</clipPath>
	<g class="st0">
		<path class="st1" d="M44.7,0H36c-1,0-1.9,0.4-2.6,1.1C32.8,0.4,31.8,0,30.8,0h-8.7c-1,0-1.9,0.4-2.6,1.1C18.9,0.4,18,0,17,0H8.3
			c-2,0-3.6,1.6-3.6,3.6v45.7c0,2,1.6,3.6,3.6,3.6H17c1,0,1.9-0.4,2.6-1.1c0.7,0.7,1.6,1.1,2.6,1.1h8.7c1,0,1.9-0.4,2.6-1.1
			C34.1,52.6,35,53,36,53h8.7c2,0,3.6-1.6,3.6-3.6V3.6C48.3,1.6,46.7,0,44.7,0L44.7,0z M17,50.9H8.3c-0.9,0-1.6-0.7-1.6-1.6V3.6
			c0-0.9,0.7-1.6,1.6-1.6H17c0.9,0,1.6,0.7,1.6,1.6v45.7C18.5,50.2,17.8,50.9,17,50.9z M30.8,50.9h-8.7c-0.9,0-1.6-0.7-1.6-1.6V3.6
			c0-0.9,0.7-1.6,1.6-1.6h8.7c0.9,0,1.6,0.7,1.6,1.6v45.7C32.4,50.2,31.7,50.9,30.8,50.9z M46.2,49.4c0,0.9-0.7,1.6-1.6,1.6H36
			c-0.9,0-1.6-0.7-1.6-1.6V3.6c0-0.9,0.7-1.6,1.6-1.6h8.7c0.9,0,1.6,0.7,1.6,1.6V49.4z"/>
		<path class="st2" d="M15,5.6v28.8h-4.7V5.6H15z"/>
		<path class="st2" d="M12.6,44.6c1.4,0,2.5-1.1,2.5-2.5c0-1.4-1.1-2.5-2.5-2.5s-2.5,1.1-2.5,2.5C10.2,43.5,11.3,44.6,12.6,44.6z"/>
		<path class="st2" d="M28.9,5.6v28.8h-4.7V5.6H28.9z"/>
		<path class="st2" d="M26.5,44.6c1.4,0,2.5-1.1,2.5-2.5c0-1.4-1.1-2.5-2.5-2.5S24,40.8,24,42.1C24,43.5,25.1,44.6,26.5,44.6z"/>
		<path class="st2" d="M42.7,5.6v28.8H38V5.6H42.7z"/>
		<path class="st2" d="M40.4,44.6c1.4,0,2.5-1.1,2.5-2.5c0-1.4-1.1-2.5-2.5-2.5c-1.4,0-2.5,1.1-2.5,2.5C37.9,43.5,39,44.6,40.4,44.6
			z"/>
	</g>
</g>
</svg>
