<!-- Generator: Adobe Illustrator 23.0.5, SVG Export Plug-In . SVG Version: 6.00 Build 0)  -->
<svg version="1.1" id="Capa_1" xmlns="http://www.w3.org/2000/svg" xmlns:xlink="http://www.w3.org/1999/xlink" x="0px" y="0px"
	 viewBox="0 0 57 58" style="enable-background:new 0 0 57 58;" xml:space="preserve">
<style type="text/css">
	.st0{fill:#59D7A2;fill-opacity:0.3;}
	.st1{clip-path:url(#SVGID_2_);}
</style>
<g>
	<path class="st0" d="M17,0.5h23c9.4,0,17,7.6,17,17v23c0,9.4-7.6,17-17,17H17c-9.4,0-17-7.6-17-17v-23C0,8.1,7.6,0.5,17,0.5z"/>
	<g>
		<defs>
			<rect id="SVGID_1_" x="12" y="12.5" width="33.1" height="33.1"/>
		</defs>
		<clipPath id="SVGID_2_">
			<use xlink:href="#SVGID_1_"  style="overflow:visible;"/>
		</clipPath>
		<g class="st1">
			<path d="M18.2,37.7l3.3,5.6c0.7,1.2,2.3,1.7,3.5,0.9c1.2-0.7,1.7-2.3,0.9-3.5L24,37.4l1.7-1c0.3-0.2,0.4-0.6,0.2-0.9L25,34.1
				c0.1,0,0.8-0.1,12.4-2.4c1.4-0.1,2.3-1.6,1.6-2.9l-2.1-3.7l1.4-2.1c0.1-0.2,0.1-0.5,0-0.7l-1.3-2.2c-0.1-0.2-0.4-0.3-0.6-0.3
				l-2.5,0.1l-2.4-4.1c-0.3-0.6-1-1-1.7-1c0,0,0,0,0,0c-0.7,0-1.3,0.3-1.6,0.9l-8.4,10.7l-5.5,3.2c-2.2,1.2-2.9,4-1.7,6.2
				C13.7,37.8,16.1,38.6,18.2,37.7z M24.8,41.4c0.4,0.6,0.1,1.4-0.5,1.8c-0.6,0.4-1.4,0.1-1.8-0.5l-3.2-5.6l2.2-1.3
				C25.3,42.3,24.7,41.3,24.8,41.4z M23.3,36.3l-0.6-1.1l1.1-0.6l0.6,1.1L23.3,36.3z M36,21.1l0.9,1.5l-0.8,1.2l-1.5-2.7L36,21.1z
				 M29.2,16.4c0.2-0.3,0.4-0.3,0.6-0.3c0.1,0,0.4,0,0.6,0.3l7.5,13c0.2,0.4-0.1,1-0.5,1c-0.1,0-0.1,0-0.4,0.1L29,16.7
				C29.2,16.5,29.2,16.5,29.2,16.4z M28.1,17.8l7.5,12.9l-11.3,2.2L20.9,27L28.1,17.8z M13.7,35.2c-0.3-0.5-0.4-1-0.4-1.6
				c0-1.2,0.6-2.2,1.6-2.8l5-2.9l3.2,5.6l-5,2.9C16.6,37.2,14.6,36.7,13.7,35.2z"/>
			<path d="M44.1,16.2l-3.6,2c-0.3,0.2-0.4,0.6-0.3,0.9c0.2,0.3,0.6,0.4,0.9,0.3l3.6-2c0.3-0.2,0.4-0.6,0.3-0.9
				C44.8,16.1,44.4,16,44.1,16.2z"/>
			<path d="M43.7,22.9l-2.5-0.7c-0.3-0.1-0.7,0.1-0.8,0.5c-0.1,0.3,0.1,0.7,0.5,0.8l2.5,0.7c0.3,0.1,0.7-0.1,0.8-0.5
				C44.2,23.3,44,23,43.7,22.9z"/>
			<path d="M37.4,13.9l-0.7,2.5c-0.1,0.3,0.1,0.7,0.5,0.8c0.3,0.1,0.7-0.1,0.8-0.5l0.7-2.5c0.1-0.3-0.1-0.7-0.5-0.8
				C37.9,13.3,37.5,13.5,37.4,13.9z"/>
		</g>
	</g>
</g>
</svg>
