<?xml version="1.0" encoding="utf-8"?>
<!-- Generator: Adobe Illustrator 23.0.5, SVG Export Plug-In . SVG Version: 6.00 Build 0)  -->
<svg version="1.1" id="Capa_1" xmlns="http://www.w3.org/2000/svg" xmlns:xlink="http://www.w3.org/1999/xlink" x="0px" y="0px"
	 viewBox="0 0 55 51" style="enable-background:new 0 0 55 51;" xml:space="preserve">
<style type="text/css">
	.st0{fill:#E71CA2;fill-opacity:0.2;}
	.st1{fill:#0A0A0B;}
</style>
<g>
	<path class="st0" d="M17.5,22.3c1.2-3-0.2-6.4-3.1-7.6c-3-1.2-6.4,0.2-7.6,3.1c-1.2,3,0.2,6.4,3.1,7.6S16.2,25.3,17.5,22.3z"/>
	<path class="st1" d="M11.9,21.7c-0.2,0-0.4,0-0.5-0.1l-1-0.6c-0.5-0.3-0.7-0.9-0.4-1.5c0.3-0.5,0.9-0.7,1.5-0.4l0.3,0.2l0.9-0.9
		c0.4-0.4,1.1-0.4,1.5,0c0.4,0.4,0.4,1.1,0,1.5l-1.4,1.4C12.5,21.6,12.2,21.7,11.9,21.7z"/>
	<path class="st0" d="M12.1,43.8c3.2,0,5.8-2.6,5.8-5.8c0-3.2-2.6-5.8-5.8-5.8c-3.2,0-5.8,2.6-5.8,5.8C6.3,41.2,8.9,43.8,12.1,43.8z
		"/>
	<path class="st1" d="M11.9,39.6c-0.2,0-0.4,0-0.5-0.1l-1-0.6C9.9,38.6,9.7,38,10,37.5c0.3-0.5,0.9-0.7,1.5-0.4l0.3,0.2l0.9-0.9
		c0.4-0.4,1.1-0.4,1.5,0c0.4,0.4,0.4,1.1,0,1.5l-1.4,1.4C12.5,39.5,12.2,39.6,11.9,39.6z"/>
	<path class="st1" d="M52.3,0.3h-6.2c-1.4,0-2.6,1.1-2.6,2.6v39c0,0,0,0.4,0.2,0.6l4.6,7.7c0.2,0.3,0.5,0.5,0.9,0.5s0.7-0.2,0.9-0.5
		l4.6-7.7c0.1-0.2,0.2-0.6,0.2-0.6v-39C54.8,1.5,53.7,0.3,52.3,0.3z M45.7,40.8V9.2h2.4v31.7H45.7z M50.2,9.2h2.4v31.7h-2.4V9.2z
		 M45.7,2.9c0-0.2,0.2-0.4,0.4-0.4h6.2c0.2,0,0.4,0.2,0.4,0.4V7h-7V2.9z M49.2,47.5L46.5,43h5.4L49.2,47.5z"/>
	<path class="st1" d="M34.9,20.6H21.8c-0.6,0-1.1,0.5-1.1,1.1c0,0.6,0.5,1.1,1.1,1.1h13.1c0.6,0,1.1-0.5,1.1-1.1
		C36,21.1,35.5,20.6,34.9,20.6z"/>
	<path class="st1" d="M21.8,16.4c-0.6,0-1.1,0.5-1.1,1.1s0.5,1.1,1.1,1.1h8.5c0.6,0,1.1-0.5,1.1-1.1s-0.5-1.1-1.1-1.1H21.8z"/>
	<path class="st1" d="M34.9,38.5H21.8c-0.6,0-1.1,0.5-1.1,1.1c0,0.6,0.5,1.1,1.1,1.1h13.1c0.6,0,1.1-0.5,1.1-1.1
		C36,39,35.5,38.5,34.9,38.5z"/>
	<path class="st1" d="M21.8,36.4h8.5c0.6,0,1.1-0.5,1.1-1.1c0-0.6-0.5-1.1-1.1-1.1h-8.5c-0.6,0-1.1,0.5-1.1,1.1
		C20.8,35.9,21.2,36.4,21.8,36.4z"/>
	<path class="st1" d="M38.2,0.4H3c-1.6,0-2.8,1.3-2.8,2.8v44.6c0,1.6,1.3,2.8,2.8,2.8h35.2c1.6,0,2.8-1.3,2.8-2.8V3.2
		C41,1.6,39.7,0.4,38.2,0.4z M38.9,47.8c0,0.4-0.3,0.7-0.7,0.7H3c-0.4,0-0.7-0.3-0.7-0.7V3.2c0-0.4,0.3-0.7,0.7-0.7h35.2
		c0.4,0,0.7,0.3,0.7,0.7V47.8z"/>
	<path class="st1" d="M32.5,8.7c0-0.6-0.5-1.1-1.1-1.1H9.7c-0.6,0-1.1,0.5-1.1,1.1c0,0.6,0.5,1.1,1.1,1.1h21.7
		C32.1,9.8,32.5,9.3,32.5,8.7z"/>
</g>
</svg>
