<!-- Generator: Adobe Illustrator 23.0.5, SVG Export Plug-In . SVG Version: 6.00 Build 0)  -->
<svg version="1.1" id="Capa_1" xmlns="http://www.w3.org/2000/svg" xmlns:xlink="http://www.w3.org/1999/xlink" x="0px" y="0px"
	 viewBox="0 0 25 25" style="enable-background:new 0 0 25 25;" xml:space="preserve">
<style type="text/css">
	.st0{fill:#FFFFFF;}
</style>
<path class="st0" d="M16.8,11.2l-3.7-2.1L9.5,7C9.2,6.8,8.8,6.7,8.4,6.8C8.1,6.9,7.7,7.1,7.5,7.5C7.5,7.6,7.4,7.7,7.4,7.8
	c0,0.1,0,0.2-0.1,0.3c0,0,0,0.1,0,0.1v4.3v4.3c0,0.4,0.2,0.8,0.4,1c0.3,0.3,0.6,0.4,1,0.4C9,18.2,9.5,18,9.6,18l3.6-2.1h0l0,0
	l3.7-2.1c0.4-0.2,0.6-0.5,0.7-0.9c0-0.1,0-0.2,0-0.3C17.7,11.7,16.8,11.2,16.8,11.2z M16.3,12.7l-3.7,2.1c0,0-0.1,0-0.1,0L9,16.9
	c0,0-0.2,0.1-0.2,0.1s-0.1,0-0.2-0.1c0,0-0.1-0.1-0.1-0.2v-4.3V8.2v0c0,0,0,0,0-0.1c0,0,0,0,0,0c0,0,0,0,0-0.1C8.7,8,8.7,8,8.8,8
	c0.1,0,0.1,0,0.1,0C8.9,8,9,8,9,8l3.6,2.1c0,0,0.1,0,0.1,0h0l3.7,2.1c0.1,0,0.2,0.1,0.2,0.2C16.4,12.5,16.4,12.6,16.3,12.7z"/>
<path class="st0" d="M21.3,3.7C18.9,1.2,15.7,0,12.5,0C9.3,0,6.1,1.2,3.7,3.7C1.2,6.1,0,9.3,0,12.5c0,3.2,1.2,6.4,3.7,8.8
	c2.4,2.4,5.6,3.7,8.8,3.7c3.2,0,6.4-1.2,8.8-3.7c2.4-2.4,3.7-5.6,3.7-8.8C25,9.3,23.8,6.1,21.3,3.7z M20.5,20.4
	c-2.2,2.2-5.1,3.3-7.9,3.3c-2.9,0-5.7-1.1-7.9-3.3c-2.2-2.2-3.3-5.1-3.3-7.9s1.1-5.7,3.3-7.9c2.2-2.2,5.1-3.3,7.9-3.3
	c2.9,0,5.7,1.1,7.9,3.3c2.2,2.2,3.3,5.1,3.3,7.9S22.7,18.3,20.5,20.4z"/>
</svg>
