<svg width="97" height="586" viewBox="0 0 97 586" fill="none" xmlns="http://www.w3.org/2000/svg">
<path d="M1 96C1 42.9807 43.9807 0 97 0V586C43.9807 586 1 543.019 1 490V96Z" fill="black"/>
<rect x="1" y="89" width="96" height="150" fill="#59D7A2"/>
<rect x="1" y="219" width="96" height="96" fill="#FAFAFA"/>
<path d="M97 96V0H96.179C43.8145 0.436458 1.43646 42.8145 1 95.179V96H97Z" fill="#E71CA2"/>
<path d="M97 96V192H96.179C43.8145 191.564 1.43646 149.186 1 96.821V96H97Z" fill="#95D6EA"/>
<path d="M1 495V412H97L1 495Z" fill="#E71CA2"/>
<circle cx="48" cy="267" r="30" fill="url(#paint0_linear)"/>
<path d="M55.4792 279.242H41.18C38.2191 279.242 35.8097 276.831 35.8097 273.867V258.786C35.8097 255.822 38.2191 253.412 41.18 253.412H55.4792C58.4401 253.412 60.8495 255.822 60.8495 258.786V273.866C60.8495 276.829 58.4401 279.242 55.4792 279.242ZM41.18 255.626C39.4103 255.626 37.9701 257.044 37.9701 258.786V273.866C37.9701 275.609 39.4103 277.025 41.18 277.025H55.4792C57.2489 277.025 58.6872 275.607 58.6872 273.866V258.786C58.6872 257.044 57.247 255.626 55.4792 255.626H41.18Z" fill="white"/>
<path d="M48.3296 273.03C44.7213 273.03 41.7833 270.023 41.7833 266.326C41.7833 262.629 44.7194 259.622 48.3296 259.622C51.9398 259.622 54.8759 262.629 54.8759 266.326C54.8759 270.023 51.9398 273.03 48.3296 273.03ZM48.3296 261.836C45.9126 261.836 43.9456 263.85 43.9456 266.326C43.9456 268.801 45.9107 270.815 48.3296 270.815C50.7466 270.815 52.7136 268.801 52.7136 266.326C52.7136 263.85 50.7466 261.836 48.3296 261.836Z" fill="white"/>
<path d="M56.8868 259.286C56.8868 260.153 56.2012 260.855 55.3566 260.855C54.51 260.855 53.8263 260.153 53.8263 259.286C53.8263 258.421 54.5119 257.719 55.3566 257.719C56.2012 257.717 56.8868 258.419 56.8868 259.286Z" fill="white"/>
<path d="M32.4442 428H69.7642C74.4282 428 78.2084 431.78 78.2084 436.444V485L63.9821 476.055H32.4442C27.7801 476.055 24 472.275 24 467.611V436.444C24 431.78 27.7801 428 32.4442 428Z" fill="#FAFAFA"/>
<path d="M64.5517 445.471V442.066C64.5517 440.408 65.6592 440.022 66.4338 440.022C67.2085 440.022 71.2097 440.022 71.2097 440.022V432.725L64.6316 432.699C57.3294 432.699 55.6709 438.14 55.6709 441.624V445.474H51.4489V450.62V453.99H55.7082C55.7082 463.64 55.7082 476.061 55.7082 476.061H64.2243C64.2243 476.061 64.2243 463.523 64.2243 453.99H70.5441L70.8503 450.646L71.3215 445.476H64.5517V445.471Z" fill="#95D6EA"/>
<path d="M97 315H1V412H97V315Z" fill="#59D7A2"/>
<path d="M97 412V376.689C62.9325 376.689 35.3107 349.068 35.3107 315H0C0 368.572 43.428 412 97 412Z" fill="#F5F5F5"/>
<defs>
<linearGradient id="paint0_linear" x1="97.2" y1="256.769" x2="25.9502" y2="251.309" gradientUnits="userSpaceOnUse">
<stop offset="0.0549384" stop-color="#7CF3C1"/>
<stop offset="1" stop-color="#95D6EA"/>
</linearGradient>
</defs>
</svg>
