<svg xmlns="http://www.w3.org/2000/svg" xmlns:xlink="http://www.w3.org/1999/xlink" viewBox="0 0 196.8 170.9"><defs><style>.cls-1{fill:url(#linear-gradient);}.cls-2{fill:url(#linear-gradient-2);}.cls-3{fill:#4d4d4f;}</style><linearGradient id="linear-gradient" x1="78.31" y1="104.26" x2="148.28" y2="30.18" gradientUnits="userSpaceOnUse"><stop offset="0" stop-color="#77bfbe"/><stop offset="1" stop-color="#53924d"/></linearGradient><linearGradient id="linear-gradient-2" x1="46.47" y1="74.18" x2="116.43" y2="0.1" xlink:href="#linear-gradient"/></defs><title>Recurso 1</title><g id="Capa_2" data-name="Capa 2"><g id="Layer_1" data-name="Layer 1"><path class="cls-1" d="M131.17,102.17H57.73a5.5,5.5,0,0,1-5.5-5.5V78a5.52,5.52,0,0,1,1.35-3.61L95.87,25.71a5.5,5.5,0,0,1,8.3,7.22L63.23,80V91.17h67.94c2.16,0,2.41-2.41,2.41-2.44v-9a5.5,5.5,0,0,1,11,0v9C144.57,94.17,140.31,102.17,131.17,102.17Z"/><path class="cls-2" d="M96.8,78.34a5.5,5.5,0,0,1-4.15-9.1l40.93-47.11V11H65.64c-2.15,0-2.41,2.42-2.41,2.44V24.19a5.5,5.5,0,1,1-11,0V13.41C52.24,8,56.5,0,65.64,0h73.43a5.5,5.5,0,0,1,5.5,5.5V24.19a5.52,5.52,0,0,1-1.35,3.61L101,76.46A5.52,5.52,0,0,1,96.8,78.34Z"/><path class="cls-3" d="M31.94,166.12v4.4H0V167l24.7-31.27H.45v-4.48h31v3.51L6.79,166.12Z"/><path class="cls-3" d="M70.67,152.54H37.84c.6,8.21,6.86,13.65,15.45,13.65a15.47,15.47,0,0,0,12-5.15l3,3.43c-3.51,4.18-9,6.42-15.15,6.42-12.24,0-20.59-8.36-20.59-20S40.67,131,51.72,131s19,8.13,19,19.92C70.75,151.35,70.67,151.94,70.67,152.54Zm-32.83-4H65.67c-.67-7.69-6.27-13.06-14-13.06S38.51,140.9,37.84,148.58Z"/><path class="cls-3" d="M112.47,147.76v22.76h-5.3V148.29c0-8.29-4.32-12.54-11.79-12.54-8.43,0-13.73,5.23-13.73,14.18v20.6h-5.3V131.27h5.07v7.24c2.84-4.78,8.13-7.54,14.93-7.54C105.91,131,112.47,136.49,112.47,147.76Z"/><path class="cls-3" d="M157.62,115.15v55.37h-5.08v-7.76c-3.21,5.3-8.66,8.13-15.15,8.13-11.19,0-19.55-8.13-19.55-20S126.21,131,137.4,131c6.27,0,11.64,2.69,14.92,7.76V115.15ZM152.4,150.9c0-9.18-6.27-15.3-14.56-15.3s-14.63,6.12-14.63,15.3,6.27,15.3,14.63,15.3S152.4,160.08,152.4,150.9Z"/><path class="cls-3" d="M196.8,146.19v24.33h-5.07V164.4c-2.39,4-7,6.49-13.51,6.49-8.88,0-14.33-4.63-14.33-11.42,0-6,3.88-11.12,15.15-11.12h12.47V146c0-6.71-3.81-10.37-11.13-10.37a20,20,0,0,0-13.05,4.63l-2.39-4c4-3.36,9.77-5.3,16-5.3C191.06,131,196.8,136,196.8,146.19Zm-5.29,12.54v-6.42H179.2c-7.61,0-10.07,3-10.07,7,0,4.56,3.65,7.39,9.92,7.39C185,166.72,189.42,163.88,191.51,158.73Z"/></g></g></svg>