<svg width="47" height="47" viewBox="0 0 47 47" fill="none" xmlns="http://www.w3.org/2000/svg">
<g clip-path="url(#clip0)">
<path d="M12.6147 36.7162C12.2831 36.509 12.1821 36.0717 12.3893 35.7401L15.3922 30.9345C15.5994 30.6029 16.0367 30.502 16.3683 30.7092C16.6999 30.9164 16.8008 31.3537 16.5936 31.6853L13.5907 36.4909C13.3835 36.8225 12.9463 36.9234 12.6147 36.7162Z" fill="white"/>
<path d="M16.2188 38.9683C15.8872 38.7611 15.7863 38.3239 15.9935 37.9923L18.9963 33.1867C19.2035 32.8551 19.6408 32.7541 19.9724 32.9613C20.304 33.1685 20.4049 33.6058 20.1977 33.9374L17.1949 38.743C16.9877 39.0746 16.5504 39.1755 16.2188 38.9683Z" fill="white"/>
<path d="M19.8231 41.2205L9.01049 34.4641C8.67891 34.2569 8.57796 33.8196 8.78516 33.488C8.99236 33.1564 9.42964 33.0554 9.76122 33.2626L20.5738 40.0191C20.9054 40.2263 21.0064 40.6636 20.7992 40.9952C20.592 41.3268 20.1547 41.4277 19.8231 41.2205Z" fill="white"/>
<path d="M30.0343 40.9192L4.80488 25.1541C3.81132 24.5333 3.50801 23.2195 4.12886 22.2259L13.8882 6.60772C14.509 5.61416 15.8228 5.31085 16.8164 5.9317L21.622 8.93457C21.9536 9.14177 22.0545 9.57905 21.8473 9.91063C21.6401 10.2422 21.2029 10.3432 20.8713 10.136L16.0657 7.1331C15.7353 6.92665 15.2968 7.02685 15.0896 7.35844L5.33026 22.9767C5.12306 23.3082 5.22521 23.7463 5.5556 23.9527L30.785 39.7178C31.1154 39.9243 31.5539 39.8241 31.7611 39.4925L41.5204 23.8743C41.7276 23.5427 41.6255 23.1046 41.2951 22.8982L40.0937 22.1475C39.7621 21.9403 39.6612 21.503 39.8684 21.1714C40.0756 20.8398 40.5128 20.7389 40.8444 20.9461L42.0458 21.6968C43.0394 22.3176 43.3427 23.6314 42.7218 24.625L32.9625 40.2432C32.3416 41.2368 31.0279 41.5401 30.0343 40.9192Z" fill="white"/>
<path d="M24.4589 23.8006C24.3051 23.7045 24.1881 23.5495 24.1432 23.3594L22.5221 16.3377C22.4362 15.9699 22.654 15.5999 23.017 15.4976L29.0131 13.7802C33.3409 12.4469 38.5791 12.937 42.0332 15.0068C42.2324 15.1346 42.3169 15.2693 42.3597 15.4548C42.403 15.6422 42.3683 15.8393 42.2626 16.0005C40.0642 19.3743 35.5715 22.113 31.0823 22.8143L24.9551 23.8968C24.7776 23.9296 24.6019 23.8899 24.4589 23.8006ZM24.0537 16.6749L25.3724 22.3868L30.8517 21.419C34.6949 20.8185 38.5173 18.6232 40.6333 15.8544C37.5181 14.2953 33.1221 13.9974 29.4172 15.1385L24.0537 16.6749Z" fill="white"/>
<path d="M24.2941 27.6601C24.24 27.6263 24.1892 27.5846 24.1449 27.5352C23.9715 27.3449 23.9148 27.0773 23.9972 26.8331L25.3637 22.759C25.4887 22.3878 25.8901 22.1892 26.2609 22.3123C26.6348 22.4357 26.8319 22.8395 26.7076 23.2095L25.8011 25.914C27.8634 24.9341 29.3779 22.9755 30.1638 21.766C30.3763 21.4393 30.8198 21.3791 31.1439 21.5582C31.4706 21.7706 31.5629 22.2109 31.3505 22.5375C29.5238 25.3485 27.2081 27.1991 24.8285 27.7485C24.6423 27.7925 24.4502 27.7577 24.2941 27.6601Z" fill="white"/>
<path d="M24.0112 16.4462C23.9655 16.4177 23.9217 16.3836 23.8823 16.3423L20.8689 13.2783C20.6878 13.095 20.6207 12.8309 20.6932 12.5838C20.7649 12.338 20.9642 12.1501 21.2141 12.0924C23.5937 11.5431 26.4851 12.1904 29.3603 13.9169C29.6634 14.1297 29.8044 14.5536 29.6032 14.8889C29.402 15.2243 28.9666 15.333 28.6312 15.1319C27.3947 14.3892 25.1768 13.2923 22.8929 13.3169L24.8931 15.3502C25.1683 15.6291 25.165 16.0781 24.885 16.3525C24.6458 16.5855 24.2839 16.6167 24.0112 16.4462Z" fill="white"/>
<path d="M13.9648 22.5253C13.8074 22.427 13.6919 22.2696 13.6491 22.0842C13.5905 21.8304 13.6762 21.5649 13.872 21.3932C14.4847 20.8539 17.6058 18.1502 18.9176 17.8473C20.5 17.483 22.081 18.471 22.4473 20.0529C22.8124 21.6342 21.8217 23.2169 20.2417 23.5827C18.9306 23.8843 14.9386 22.8248 14.1516 22.6087C14.0866 22.5897 14.0225 22.5614 13.9648 22.5253ZM20.3894 19.4218C20.059 19.2154 19.6481 19.1324 19.2382 19.227C18.685 19.3558 17.1556 20.4933 15.8413 21.5781C17.5001 21.9764 19.3718 22.3308 19.925 22.2021C20.7437 22.012 21.2572 21.1903 21.0684 20.3723C20.9725 19.9616 20.721 19.629 20.3894 19.4218ZM20.0833 22.8924L20.0954 22.8999L20.0833 22.8924Z" fill="white"/>
</g>
<defs>
<clipPath id="clip0">
<rect width="34" height="34" fill="white" transform="translate(18.0172) rotate(32)"/>
</clipPath>
</defs>
</svg>
