<svg id="b90e0811-52dd-4b84-b04b-83898722be62" data-name="Capa 1" xmlns="http://www.w3.org/2000/svg" viewBox="0 0 363.8 364.85"><defs><style>.adafa908-685d-4026-aab3-3173edd0366e{fill:#d8d9dd;}.ea570d72-0412-46ed-aacc-1c206ed08f44{fill:#ccc;stroke:#ccc;stroke-miterlimit:10;stroke-width:0.25px;}</style></defs><title>zenda-circle</title><path class="adafa908-685d-4026-aab3-3173edd0366e" d="M15.94,122.48C3.77,151.38,2.42,183.29,8.61,213.8s19.14,59.28,35.49,85.53A53.74,53.74,0,0,0,50.27,308a98.79,98.79,0,0,0,7.81,7.5A118.71,118.71,0,0,0,75.2,327.7c12.18,7.26,25.38,12.66,38.69,17.47s27.08,9.12,40.46,14.13a31.39,31.39,0,0,0,5.79,1.23c2.4.41,4.8.8,7.21,1.15,4.28.63,8.56,1.17,12.87,1.59a187.78,187.78,0,0,0,27.45.75,145.16,145.16,0,0,0,26.25-3.66c2.25-.53,4.42-1.24,6.61-2a52.26,52.26,0,0,0,5.87-2.05c3.87-1.82,7.63-3.87,11.33-6,7.19-4.15,14.16-8.65,21.4-12.72,1.87-1,3.74-2.06,5.64-3a22.25,22.25,0,0,0,5.06-2.86q4.4-3.9,8.58-8.06a229.67,229.67,0,0,0,50.92-76.8c12.41-31,18.3-65.57,10-98.41q-.81-3.17-1.78-6.3a8.23,8.23,0,0,0-1.86-3.33c-1.14-1.39-1.4-3.91-2-5.62-.71-2.16-1.5-4.29-2.33-6.41-1.5-3.75-3.16-7.43-4.9-11.07-.88-1.85-1.78-3.68-2.69-5.51-.48-1-.93-1.94-1.44-2.88a9.67,9.67,0,0,0-1.88-2.21c-2.7-2.69-4.4-6.45-6.44-9.66q-2.88-4.52-6-8.9-5.87-8.34-12.47-16.12a206.52,206.52,0,0,0-64.71-51.16A196.94,196.94,0,0,0,211.7,4.69a38,38,0,0,0-5-1.22c-1.88-.22-3.8.15-5.68-.15-4.38-.7-8.67-1.65-13.09-2.1a124.6,124.6,0,0,0-26.75.27,159.56,159.56,0,0,0-25.25,5.1.63.63,0,0,0,.33,1.21C153.22,3,171,.65,188.58,2.55q3.67.39,7.31,1c2,.36,4.18,1.09,6.25,1.12a28,28,0,0,1,5.26.22c1.77.38,3.53.85,5.28,1.31a197.51,197.51,0,0,1,19.72,6.32A200.48,200.48,0,0,1,301,56.66a218.84,218.84,0,0,1,26.57,31.41q2.93,4.19,5.64,8.49,1.31,2,2.55,4.12a24,24,0,0,0,2.8,4.34,16.72,16.72,0,0,1,2.69,3c.55.91,1,1.93,1.44,2.88,1,1.93,1.91,3.86,2.83,5.8,1.83,3.84,3.57,7.72,5.1,11.69q1,2.73,2,5.51c.52,1.61.75,3.68,1.58,5.14a11.54,11.54,0,0,0,1.19,1.33,7.15,7.15,0,0,1,1,2.49q1,3.12,1.76,6.3a125.73,125.73,0,0,1,3.65,24.94A159.39,159.39,0,0,1,356,223.29c-8.23,30.27-23.61,58.85-43.49,83.06a216.68,216.68,0,0,1-15.35,16.85c-2.64,2.6-5.3,5.3-8.16,7.65a31.36,31.36,0,0,1-5.66,3.1c-1.89,1-3.77,2-5.62,3.07-7.13,4-14,8.49-21.13,12.56a111.66,111.66,0,0,1-10.77,5.68,76.07,76.07,0,0,1-13.21,4.13c-17.61,4-35.81,4.33-53.72,2.49q-6.79-.7-13.56-1.77c-4.09-.63-8.21-1.13-12.1-2.57-6.57-2.43-13.21-4.69-19.84-6.94-26.35-9-53.94-18-75.19-36.73a100,100,0,0,1-7.37-7.19,59.61,59.61,0,0,1-6.51-9.45q-5.91-9.6-11.12-19.6A263.9,263.9,0,0,1,15.38,235C6.23,205.8,2.89,174.3,10.09,144.27a137.81,137.81,0,0,1,7.06-21.46c.31-.74-.9-1.06-1.21-.33Z"/><path class="ea570d72-0412-46ed-aacc-1c206ed08f44" d="M27.43,135.53h0c-3.51-4.49-6.94-9.12-10.18-13.79l-.29-.41L1,127.41A.65.65,0,0,0,.5,128a.66.66,0,0,0,.67.65.65.65,0,0,0,.31-.08h0l15-5.7c3.15,4.51,6.47,9,9.87,13.34a.66.66,0,0,0,.57.32.65.65,0,0,0,.67-.64A.61.61,0,0,0,27.43,135.53Z"/></svg>