<svg width="183" height="182" viewBox="0 0 183 182" fill="none" xmlns="http://www.w3.org/2000/svg">
<path d="M36.1499 119.37C41.3932 129.655 49.3779 138.29 59.2219 144.321C69.0658 150.352 80.3855 153.544 91.9299 153.544C103.474 153.544 114.794 150.352 124.638 144.321C134.482 138.29 142.467 129.655 147.71 119.37L173 132.24C165.372 147.169 153.768 159.701 139.469 168.453C125.169 177.204 108.73 181.836 91.9649 181.836C75.1999 181.836 58.7607 177.204 44.4613 168.453C30.1618 159.701 18.5579 147.169 10.9299 132.24L36.1499 119.37Z" fill="#95D6EA"/>
<path d="M136.19 46.6799C130.961 41.4737 124.872 37.2109 118.19 34.0799C108.078 29.4504 96.9191 27.586 85.8514 28.6769C74.7837 29.7679 64.2035 33.7752 55.1901 40.2899C49.2047 44.6629 44.0216 50.0389 39.8701 56.1799C33.6906 65.4319 30.0885 76.1635 29.4347 87.2701C28.7808 98.3767 31.0989 109.457 36.1501 119.37L10.8901 132.24C3.5543 117.832 0.189632 101.73 1.14225 85.5897C2.09486 69.4497 7.33035 53.855 16.3101 40.4099C22.3021 31.5154 29.7974 23.7325 38.4601 17.4099C51.5516 7.92745 66.9292 2.09663 83.0166 0.515123C99.104 -1.06638 115.323 1.65832 130.01 8.40994C139.751 12.9376 148.628 19.1305 156.24 26.7099L136.19 46.6799Z" fill="#59D7A2"/>
<path d="M147.71 119.37C153.7 107.587 155.811 94.2116 153.742 81.1563C151.673 68.101 145.529 56.0339 136.19 46.6801L156.24 26.6801C159.584 30.0657 162.678 33.6885 165.5 37.5201C168.311 41.3663 170.818 45.4252 173 49.6601C175.181 53.9017 177.008 58.3168 178.46 62.8601C179.942 67.3861 181.056 72.0245 181.79 76.7301C184.785 95.6974 181.708 115.126 173 132.24L147.71 119.37Z" fill="#E71CA2"/>
<path d="M82.19 167.71L81.26 166.28L83.8 164.07H79.54V162.28H86.42V163.95L83.91 166.06C84.6626 166.078 85.3791 166.386 85.91 166.92C86.1889 167.192 86.4077 167.519 86.5523 167.881C86.697 168.243 86.7643 168.631 86.75 169.02C86.7562 169.45 86.6702 169.875 86.4977 170.269C86.3252 170.662 86.0702 171.014 85.75 171.3C84.9911 171.909 84.0502 172.247 83.0771 172.26C82.1039 172.273 81.1545 171.959 80.38 171.37C80.0541 171.1 79.7861 170.766 79.5919 170.39C79.3978 170.014 79.2815 169.602 79.25 169.18L81.25 168.78C81.2514 169.009 81.2981 169.236 81.3873 169.447C81.4765 169.658 81.6066 169.849 81.77 170.01C82.1118 170.326 82.5645 170.495 83.03 170.48C83.2469 170.49 83.4636 170.457 83.6679 170.384C83.8721 170.31 84.0597 170.196 84.22 170.05C84.3594 169.923 84.4712 169.769 84.5486 169.597C84.626 169.425 84.6673 169.239 84.67 169.05C84.6751 168.851 84.6376 168.654 84.5599 168.471C84.4823 168.288 84.3664 168.124 84.22 167.99C83.8936 167.733 83.4853 167.601 83.07 167.62C82.7737 167.598 82.4758 167.629 82.19 167.71Z" fill="white"/>
<path d="M87.6499 169.27L89.5899 168.82C89.5944 169.038 89.6428 169.254 89.7322 169.453C89.8215 169.652 89.9499 169.831 90.1099 169.98C90.2779 170.138 90.476 170.262 90.6924 170.342C90.9088 170.423 91.1391 170.46 91.3699 170.45C91.8085 170.462 92.2349 170.305 92.5599 170.01C92.7195 169.863 92.8451 169.683 92.928 169.483C93.0109 169.283 93.0491 169.067 93.0399 168.85C93.05 168.623 93.0095 168.397 92.9213 168.188C92.8331 167.978 92.6994 167.791 92.5299 167.64C92.1833 167.357 91.7469 167.208 91.2999 167.22C91.0176 167.215 90.7376 167.273 90.4801 167.389C90.2225 167.504 89.9937 167.676 89.8099 167.89C89.0899 167.63 88.4599 167.42 87.9099 167.26L89.0399 162.26H94.5299V164H90.4499L89.9999 166.18C90.4841 165.761 91.1101 165.543 91.7499 165.57C92.6366 165.527 93.5051 165.832 94.1699 166.42C94.487 166.729 94.7341 167.102 94.8946 167.514C95.055 167.926 95.125 168.368 95.0999 168.81C95.1104 169.258 95.0269 169.703 94.8546 170.116C94.6824 170.53 94.4253 170.902 94.0999 171.21C93.7374 171.549 93.311 171.811 92.8456 171.983C92.3803 172.155 91.8854 172.232 91.3899 172.21C90.4521 172.248 89.5334 171.938 88.8099 171.34C88.4859 171.092 88.216 170.78 88.0165 170.425C87.8171 170.069 87.6923 169.676 87.6499 169.27Z" fill="white"/>
<path d="M99.3499 171.93H97.6099L104.43 162.16H106.17L99.3499 171.93ZM96.8399 166.24C96.6021 166.02 96.4133 165.752 96.2858 165.454C96.1583 165.156 96.095 164.834 96.0999 164.51C96.0947 164.186 96.1559 163.865 96.2797 163.565C96.4035 163.266 96.5874 162.995 96.8199 162.77C97.2894 162.308 97.9215 162.05 98.5799 162.05C99.2384 162.05 99.8705 162.308 100.34 162.77C100.573 162.996 100.759 163.266 100.886 163.565C101.013 163.864 101.078 164.185 101.078 164.51C101.078 164.835 101.013 165.156 100.886 165.455C100.759 165.754 100.573 166.024 100.34 166.25C100.108 166.479 99.8333 166.66 99.5311 166.782C99.229 166.903 98.9057 166.964 98.5799 166.96C98.2564 166.963 97.9356 166.901 97.6367 166.777C97.3377 166.653 97.0668 166.471 96.8399 166.24ZM97.5999 164.5C97.5958 164.64 97.6194 164.778 97.6691 164.909C97.7189 165.039 97.7939 165.159 97.8899 165.26C97.9829 165.354 98.0935 165.428 98.2153 165.479C98.3372 165.53 98.4679 165.556 98.5999 165.556C98.7319 165.556 98.8626 165.53 98.9845 165.479C99.1064 165.428 99.217 165.354 99.3099 165.26C99.4938 165.051 99.5904 164.779 99.5799 164.5C99.5893 164.223 99.4886 163.953 99.2999 163.75C99.2045 163.658 99.0917 163.586 98.9681 163.538C98.8444 163.49 98.7125 163.467 98.5799 163.47C98.4486 163.467 98.3182 163.492 98.1974 163.544C98.0767 163.596 97.9684 163.673 97.8799 163.77C97.7866 163.867 97.7137 163.981 97.6656 164.107C97.6175 164.232 97.5952 164.366 97.5999 164.5ZM103.42 171.36C103.185 171.138 102.999 170.869 102.874 170.571C102.748 170.274 102.686 169.953 102.69 169.63C102.68 169.306 102.74 168.983 102.864 168.683C102.988 168.383 103.174 168.113 103.41 167.89C103.636 167.655 103.908 167.469 104.209 167.343C104.51 167.218 104.834 167.155 105.16 167.16C105.488 167.152 105.814 167.211 106.118 167.333C106.422 167.455 106.698 167.638 106.93 167.87C107.169 168.09 107.359 168.357 107.489 168.655C107.618 168.953 107.683 169.275 107.68 169.6C107.686 169.926 107.625 170.251 107.499 170.552C107.374 170.853 107.186 171.125 106.95 171.35C106.718 171.579 106.443 171.76 106.141 171.882C105.839 172.003 105.516 172.064 105.19 172.06C104.863 172.069 104.537 172.012 104.233 171.891C103.929 171.771 103.652 171.59 103.42 171.36ZM104.19 169.62C104.184 169.759 104.206 169.898 104.254 170.028C104.302 170.159 104.375 170.278 104.47 170.38C104.563 170.473 104.674 170.546 104.796 170.596C104.918 170.646 105.048 170.671 105.18 170.67C105.313 170.675 105.446 170.651 105.568 170.599C105.691 170.547 105.801 170.469 105.89 170.37C106.074 170.162 106.176 169.893 106.176 169.615C106.176 169.337 106.074 169.068 105.89 168.86C105.798 168.766 105.687 168.692 105.565 168.644C105.443 168.596 105.311 168.574 105.18 168.58C105.049 168.577 104.918 168.602 104.797 168.654C104.677 168.706 104.568 168.783 104.48 168.88C104.384 168.977 104.308 169.093 104.258 169.22C104.208 169.347 104.185 169.483 104.19 169.62Z" fill="white"/>
<path d="M166.27 69.72L166 67.9C166.472 67.7128 166.984 67.6486 167.488 67.7133C167.991 67.778 168.47 67.9695 168.88 68.2699C169.548 68.8382 169.996 69.6233 170.144 70.4879C170.292 71.3525 170.131 72.2417 169.69 72.9999C169.479 73.3271 169.2 73.6052 168.872 73.8156C168.544 74.026 168.175 74.1639 167.79 74.22C167.209 74.3018 166.618 74.2251 166.077 73.998C165.537 73.7709 165.068 73.4019 164.72 72.93L163.39 71.37C163.151 71.0637 162.822 70.8399 162.45 70.73L163.15 75.0299L161.51 75.3L160.43 68.66C161.187 68.5316 161.964 68.5795 162.7 68.8C163.45 69.0635 164.109 69.5352 164.6 70.16L165.72 71.4899C165.907 71.768 166.165 71.9902 166.468 72.1328C166.771 72.2754 167.107 72.3332 167.44 72.3C167.603 72.2794 167.76 72.2252 167.901 72.1408C168.042 72.0565 168.165 71.9438 168.26 71.8099C168.362 71.6553 168.431 71.4816 168.463 71.2994C168.496 71.1172 168.492 70.9303 168.45 70.75C168.433 70.5507 168.373 70.3577 168.272 70.1847C168.172 70.0118 168.035 69.8633 167.87 69.75C167.527 69.5477 167.12 69.48 166.73 69.5599C166.569 69.5871 166.413 69.6412 166.27 69.72Z" fill="white"/>
<path d="M166.18 75.5601C167.29 75.3304 168.442 75.4242 169.5 75.8301C170.023 76.0896 170.476 76.4692 170.824 76.9376C171.172 77.4061 171.404 77.9502 171.502 78.5255C171.599 79.1008 171.559 79.691 171.385 80.248C171.211 80.8049 170.908 81.3128 170.5 81.7301C169.598 82.4077 168.544 82.8534 167.43 83.0278C166.315 83.2021 165.175 83.0999 164.11 82.7301C163.587 82.4705 163.134 82.091 162.786 81.6225C162.438 81.1541 162.205 80.61 162.108 80.0346C162.01 79.4593 162.05 78.8691 162.225 78.3121C162.399 77.7552 162.702 77.2474 163.11 76.8301C163.991 76.1224 165.056 75.6817 166.18 75.5601ZM166.49 77.4701C165.69 77.5505 164.927 77.8441 164.28 78.3201C164.072 78.4999 163.915 78.7316 163.826 78.9915C163.736 79.2514 163.717 79.5303 163.77 79.8001C163.806 80.0695 163.913 80.3245 164.079 80.5389C164.246 80.7533 164.468 80.9194 164.72 81.0201C165.479 81.284 166.297 81.3291 167.08 81.1501C167.881 81.0752 168.644 80.7734 169.28 80.2801C169.49 80.1057 169.648 79.8782 169.74 79.6213C169.831 79.3644 169.852 79.0877 169.8 78.8201C169.762 78.5418 169.649 78.2793 169.473 78.0607C169.296 77.8422 169.064 77.676 168.8 77.5801C168.053 77.339 167.256 77.3011 166.49 77.4701Z" fill="white"/>
<path d="M163.54 87.64L163.28 86L173.28 90.87L173.54 92.48L163.54 87.64ZM164.66 91.31C164.834 91.0633 165.056 90.8538 165.312 90.6938C165.568 90.5337 165.853 90.4263 166.151 90.3779C166.449 90.3295 166.753 90.341 167.047 90.4118C167.34 90.4825 167.617 90.6111 167.86 90.79C168.356 91.1524 168.689 91.6953 168.789 92.3014C168.888 92.9076 168.745 93.5284 168.39 94.03C168.226 94.2924 168.009 94.5172 167.752 94.6896C167.495 94.862 167.205 94.978 166.9 95.03C166.599 95.0841 166.29 95.0737 165.994 94.9996C165.697 94.9255 165.42 94.7893 165.18 94.6C164.935 94.4217 164.729 94.1963 164.572 93.9369C164.416 93.6776 164.313 93.3896 164.27 93.09C164.204 92.7826 164.205 92.4648 164.272 92.1577C164.339 91.8507 164.472 91.5616 164.66 91.31ZM166.37 91.76C166.114 91.7946 165.881 91.9272 165.72 92.13C165.646 92.2292 165.593 92.3424 165.564 92.4627C165.534 92.5829 165.53 92.7079 165.55 92.83C165.567 92.9527 165.609 93.0704 165.675 93.1755C165.74 93.2807 165.827 93.3708 165.93 93.44C166.149 93.5813 166.415 93.6315 166.67 93.58C166.926 93.5454 167.159 93.4128 167.32 93.21C167.447 93.0035 167.495 92.7578 167.455 92.5186C167.414 92.2794 167.288 92.0631 167.1 91.91C166.996 91.8355 166.877 91.7836 166.751 91.7578C166.625 91.7319 166.495 91.7327 166.37 91.76ZM168.43 84.49C168.602 84.2418 168.823 84.0313 169.079 83.8714C169.335 83.7115 169.621 83.6055 169.92 83.56C170.219 83.5078 170.525 83.5183 170.819 83.5906C171.113 83.6629 171.39 83.7955 171.63 83.98C171.88 84.1551 172.091 84.3794 172.251 84.639C172.411 84.8987 172.516 85.1882 172.56 85.49C172.612 85.7904 172.604 86.0984 172.535 86.3955C172.467 86.6927 172.339 86.973 172.16 87.22C171.995 87.4812 171.777 87.705 171.521 87.8772C171.264 88.0494 170.974 88.1662 170.67 88.22C170.369 88.2741 170.06 88.2637 169.764 88.1896C169.467 88.1155 169.19 87.9793 168.95 87.79C168.463 87.4181 168.138 86.8735 168.041 86.2688C167.945 85.664 168.084 85.0452 168.43 84.54V84.49ZM170.14 84.95C169.884 84.9846 169.651 85.1172 169.49 85.32C169.416 85.4192 169.363 85.5324 169.334 85.6527C169.304 85.7729 169.3 85.8979 169.32 86.02C169.338 86.1423 169.381 86.2596 169.447 86.3646C169.512 86.4695 169.598 86.5599 169.7 86.63C169.919 86.7713 170.185 86.8215 170.44 86.77C170.696 86.7354 170.929 86.6028 171.09 86.4C171.164 86.3012 171.216 86.1874 171.242 86.0665C171.268 85.9456 171.267 85.8206 171.24 85.7C171.226 85.5791 171.185 85.4629 171.121 85.3593C171.057 85.2557 170.971 85.1672 170.87 85.1C170.762 85.0339 170.641 84.9909 170.515 84.9737C170.39 84.9565 170.262 84.9655 170.14 85V84.95Z" fill="white"/>
<path d="M37.5201 38.2399L36.3301 36.4299L36.7301 29.5999L38.8601 28.1899L42.0901 33.1099L43.4301 32.2199L44.4301 33.6999L43.0901 34.5799L44.2301 36.3299L42.5301 37.4499L41.3801 35.7099L37.5201 38.2399ZM40.3901 34.2399L38.3901 31.1299L38.1201 35.7599L40.3901 34.2399Z" fill="white"/>
<path d="M44.6 32.8L46 31.37C46.1229 31.5509 46.281 31.7053 46.4648 31.8238C46.6486 31.9423 46.8544 32.0227 47.07 32.06C47.5162 32.1267 47.9715 32.0299 48.3519 31.7873C48.7323 31.5447 49.0122 31.1727 49.14 30.74C49.188 30.5218 49.1918 30.2961 49.1511 30.0764C49.1103 29.8567 49.0259 29.6474 48.9028 29.4609C48.7798 29.2744 48.6205 29.1145 48.4345 28.9907C48.2485 28.8668 48.0395 28.7816 47.82 28.74C47.3781 28.6895 46.9332 28.8034 46.57 29.06C46.3281 29.2067 46.1225 29.4061 45.9684 29.6433C45.8143 29.8805 45.7157 30.1494 45.68 30.43C44.94 30.6 44.29 30.76 43.74 30.93L41.96 26.13L46.55 23.13L47.55 24.62L44.1 26.88L44.88 28.94C45.0518 28.3249 45.4526 27.799 46 27.47C46.7181 26.9486 47.6121 26.7296 48.49 26.86C48.922 26.9514 49.3302 27.132 49.6884 27.3903C50.0466 27.6486 50.3469 27.9789 50.57 28.36C50.8207 28.733 50.9911 29.1542 51.0703 29.5966C51.1495 30.0391 51.1357 30.4932 51.03 30.93C50.9124 31.4118 50.6997 31.8653 50.4043 32.2637C50.1089 32.6622 49.7368 32.9975 49.31 33.25C48.5445 33.7869 47.609 34.0252 46.68 33.92C46.2755 33.8838 45.8826 33.7659 45.5251 33.5734C45.1675 33.3808 44.8528 33.1177 44.6 32.8Z" fill="white"/>
<path d="M50.6499 25.25C50.335 25.2 50.0337 25.0853 49.7653 24.9132C49.4968 24.7411 49.2668 24.5153 49.0899 24.25C48.9097 23.9794 48.7866 23.6748 48.7282 23.355C48.6697 23.0352 48.6771 22.7068 48.7499 22.39C48.8846 21.7446 49.2698 21.179 49.8209 20.8172C50.3721 20.4554 51.0442 20.3269 51.6899 20.46C52.0079 20.5091 52.3123 20.6232 52.5841 20.7953C52.856 20.9673 53.0895 21.1936 53.2699 21.46C53.4547 21.7284 53.5797 22.0333 53.6366 22.3542C53.6935 22.675 53.681 23.0044 53.5999 23.32C53.5343 23.6393 53.4048 23.9421 53.2192 24.2102C53.0336 24.4783 52.7957 24.7061 52.5199 24.88C52.2503 25.0666 51.9451 25.1958 51.6234 25.2595C51.3017 25.3231 50.9703 25.3199 50.6499 25.25ZM50.3499 23.38C50.4212 23.4989 50.5153 23.6026 50.6269 23.685C50.7385 23.7674 50.8652 23.8268 50.9999 23.86C51.2586 23.9142 51.5283 23.8639 51.7499 23.72C51.8632 23.6502 51.9602 23.557 52.0344 23.4466C52.1086 23.3362 52.1582 23.2112 52.1799 23.08C52.2172 22.8065 52.1549 22.5287 52.0043 22.2974C51.8538 22.0661 51.6251 21.8966 51.3599 21.82C51.2305 21.7938 51.0972 21.7935 50.9677 21.8191C50.8382 21.8447 50.7151 21.8957 50.6054 21.9691C50.4957 22.0426 50.4016 22.137 50.3286 22.247C50.2555 22.357 50.205 22.4804 50.1799 22.61C50.1546 22.7431 50.1566 22.8801 50.1858 23.0124C50.215 23.1448 50.2709 23.2698 50.3499 23.38ZM55.8699 28.66L54.4099 29.61L54.7999 17.71L56.2499 16.71L55.8699 28.66ZM58.9999 26C58.6825 25.9381 58.3806 25.8135 58.1119 25.6334C57.8433 25.4534 57.6133 25.2215 57.4354 24.9514C57.2575 24.6813 57.1353 24.3784 57.076 24.0605C57.0167 23.7426 57.0214 23.416 57.0899 23.1C57.1537 22.7798 57.2813 22.4758 57.4651 22.2061C57.649 21.9363 57.8853 21.7064 58.1599 21.53C58.4246 21.344 58.7234 21.2121 59.0391 21.1417C59.3548 21.0714 59.6813 21.064 59.9999 21.12C60.3222 21.1744 60.6294 21.296 60.9016 21.4769C61.1738 21.6578 61.4049 21.8939 61.5799 22.17C61.7604 22.4347 61.8831 22.7345 61.94 23.0498C61.9968 23.3651 61.9866 23.6889 61.9099 24C61.8427 24.3187 61.7125 24.6209 61.5271 24.8888C61.3416 25.1566 61.1046 25.3848 60.8299 25.56C60.5697 25.7518 60.2738 25.8896 59.9595 25.9652C59.6451 26.0407 59.3189 26.0526 58.9999 26ZM58.6899 24.13C58.7612 24.2489 58.8553 24.3526 58.9669 24.435C59.0785 24.5174 59.2052 24.5768 59.3399 24.61C59.5999 24.6613 59.8697 24.6074 60.0899 24.46C60.2039 24.3924 60.3022 24.3012 60.378 24.1925C60.4539 24.0839 60.5057 23.9603 60.5299 23.83C60.5697 23.552 60.5018 23.2694 60.3399 23.04C60.271 22.9221 60.1786 22.8195 60.0686 22.7387C59.9585 22.6579 59.833 22.6005 59.6999 22.57C59.5714 22.5404 59.4381 22.5384 59.3088 22.5643C59.1795 22.5902 59.0572 22.6432 58.9499 22.72C58.729 22.8649 58.5744 23.0914 58.5199 23.35C58.4684 23.6054 58.5186 23.871 58.6599 24.09L58.6899 24.13Z" fill="white"/>
<g filter="url(#filter0_d)">
<ellipse cx="91.5" cy="91" rx="28.5" ry="28" fill="white"/>
</g>
<path d="M98.0477 99.3354H84.4354C84.2971 99.3442 84.1585 99.3246 84.0281 99.2777C83.8977 99.2308 83.7784 99.1576 83.6774 99.0627C83.5764 98.9678 83.496 98.8532 83.4412 98.726C83.3863 98.5987 83.3582 98.4616 83.3584 98.3231V94.8554C83.3564 94.61 83.4445 94.3724 83.6061 94.1877L91.4461 85.163C91.63 84.9851 91.8739 84.8825 92.1296 84.8755C92.3854 84.8685 92.6346 84.9576 92.8279 85.1253C93.0212 85.2929 93.1447 85.5269 93.174 85.7811C93.2033 86.0353 93.1362 86.2912 92.9861 86.4984L85.3938 95.2323V97.3H97.9938C98.3923 97.3 98.4354 96.8477 98.4354 96.8477V95.1784C98.5062 94.963 98.6432 94.7754 98.8269 94.6424C99.0106 94.5094 99.2316 94.4378 99.4584 94.4378C99.6852 94.4378 99.9062 94.5094 100.09 94.6424C100.274 94.7754 100.411 94.963 100.482 95.1784V96.8477C100.479 97.4974 100.223 98.1206 99.769 98.585C99.3146 99.0494 98.6972 99.3186 98.0477 99.3354Z" fill="url(#paint0_linear)"/>
<path d="M91.6724 94.92C91.4268 94.9231 91.1888 94.8348 91.0047 94.6723C90.8201 94.4798 90.7135 94.2257 90.7055 93.9591C90.6975 93.6925 90.7888 93.4324 90.9616 93.2293L98.5 84.5385V82.4385H85.9001C85.5016 82.4385 85.4477 82.88 85.4477 82.8908V84.8831C85.4218 85.135 85.3034 85.3682 85.1154 85.5379C84.9274 85.7075 84.6832 85.8014 84.43 85.8014C84.1769 85.8014 83.9327 85.7075 83.7447 85.5379C83.5567 85.3682 83.4383 85.135 83.4124 84.8831V82.88C83.4152 82.2211 83.6782 81.59 84.1441 81.1241C84.61 80.6582 85.2411 80.3952 85.9001 80.3923H99.5124C99.7889 80.392 100.055 80.498 100.255 80.6885C100.456 80.8789 100.575 81.1392 100.589 81.4154V84.8831C100.587 85.1297 100.495 85.3671 100.331 85.5508L92.5016 94.5754C92.3963 94.6891 92.2677 94.7788 92.1246 94.8383C91.9815 94.8977 91.8272 94.9256 91.6724 94.92Z" fill="url(#paint1_linear)"/>
<defs>
<filter id="filter0_d" x="43" y="47" width="97" height="96" filterUnits="userSpaceOnUse" color-interpolation-filters="sRGB">
<feFlood flood-opacity="0" result="BackgroundImageFix"/>
<feColorMatrix in="SourceAlpha" type="matrix" values="0 0 0 0 0 0 0 0 0 0 0 0 0 0 0 0 0 0 127 0"/>
<feOffset dy="4"/>
<feGaussianBlur stdDeviation="10"/>
<feColorMatrix type="matrix" values="0 0 0 0 0 0 0 0 0 0 0 0 0 0 0 0 0 0 0.05 0"/>
<feBlend mode="normal" in2="BackgroundImageFix" result="effect1_dropShadow"/>
<feBlend mode="normal" in="SourceGraphic" in2="effect1_dropShadow" result="shape"/>
</filter>
<linearGradient id="paint0_linear" x1="88.2477" y1="99.723" x2="101.214" y2="85.9923" gradientUnits="userSpaceOnUse">
<stop stop-color="#77BEBD"/>
<stop offset="1" stop-color="#52914D"/>
</linearGradient>
<linearGradient id="paint1_linear" x1="1491.92" y1="1459.57" x2="1662.77" y2="1245.49" gradientUnits="userSpaceOnUse">
<stop stop-color="#77BEBD"/>
<stop offset="1" stop-color="#52914D"/>
</linearGradient>
</defs>
</svg>
