<svg width="44" height="44" viewBox="0 0 44 44" fill="none" xmlns="http://www.w3.org/2000/svg">
<g clip-path="url(#clip0)">
<path d="M43.3602 16.5669L41.5627 15.4437C41.3146 15.2886 40.9876 15.3641 40.8326 15.6123L25.9505 39.4286L25.0517 38.867L34.3179 24.038C34.473 23.7898 34.3975 23.4629 34.1494 23.3078L28.757 19.9383C28.5088 19.7832 28.1819 19.8587 28.0268 20.1068L27.1845 21.4549L22.2414 18.3662C21.9933 18.2111 21.6663 18.2866 21.5113 18.5348L20.1073 20.7816L15.1643 17.6929C14.9161 17.5378 14.5892 17.6133 14.4341 17.8614L7.97588 28.1968L2.13414 24.5465C1.88598 24.3914 1.55904 24.4669 1.40398 24.7151L0.280799 26.5125C0.125732 26.7607 0.20121 27.0876 0.44937 27.2427L26.5125 43.5287C26.7607 43.6838 27.0876 43.6083 27.2427 43.3602L43.5287 17.297C43.6838 17.0489 43.6083 16.7219 43.3602 16.5669ZM28.6448 21.1178L33.1384 23.9257L24.153 38.3054L19.6594 35.4975L28.6448 21.1178ZM22.1292 19.5457L26.6229 22.3537L18.7606 34.9359L14.267 32.1279L22.1292 19.5457ZM15.0521 18.8724L19.5457 21.6803L13.3683 31.5663L8.8746 28.7584L15.0521 18.8724ZM26.6247 42.3492L1.46032 26.6247L2.02191 25.726L25.8382 40.6081C26.0864 40.7632 26.4133 40.6877 26.5684 40.4395L41.4505 16.6232L42.3492 17.1848L26.6247 42.3492Z" fill="white"/>
<path d="M8.22305 15.1543L8.69979 17.2193C8.76555 17.5041 9.05014 17.682 9.33522 17.6163L28.4382 13.2059L28.7962 14.7549C28.8408 14.9511 28.9928 15.1053 29.1883 15.1527C29.3839 15.1999 29.5894 15.1324 29.7188 14.9784L33.1328 10.926C33.2404 10.7983 33.2817 10.6276 33.2441 10.4647C33.2066 10.3021 33.0946 10.1669 32.9419 10.0992L28.0962 7.95481C27.9123 7.87315 27.6979 7.90238 27.5429 8.03072C27.388 8.15906 27.3189 8.36426 27.3649 8.56018L27.7239 10.1077L8.62011 14.5189C8.33489 14.5847 8.1572 14.8691 8.22305 15.1543ZM28.4779 11.0218C28.7628 10.9561 28.9406 10.6715 28.8749 10.3866L28.6368 9.3537L31.8673 10.7829L29.5908 13.4843L29.3515 12.4513C29.2858 12.1664 29.0012 11.9886 28.7161 12.0542L9.61309 16.4647L9.37472 15.4322L28.4779 11.0218Z" fill="white"/>
</g>
<defs>
<clipPath id="clip0">
<rect width="31.7929" height="31.7929" fill="white" transform="translate(16.8477) rotate(32)"/>
</clipPath>
</defs>
</svg>
