<svg width="48" height="48" viewBox="0 0 48 48" fill="none" xmlns="http://www.w3.org/2000/svg">
<g clip-path="url(#clip0)">
<path d="M27.5265 8.85595C21.0682 6.2466 13.7174 9.36684 11.108 15.8252C8.49865 22.2836 11.6189 29.6344 18.0773 32.2438C24.5356 34.8531 31.8865 31.7329 34.4958 25.2745C37.097 18.8162 33.9792 11.4712 27.5265 8.85595ZM27.0766 9.96966C30.5152 11.3621 33.0611 14.3408 33.9011 17.9543L31.9465 18.784C31.6906 18.4421 31.347 18.1757 30.9521 18.013C29.722 17.516 28.3218 18.1103 27.8248 19.3405C27.6666 19.7377 27.6187 20.1702 27.6863 20.5923L22.5668 22.7654C22.0465 22.0655 21.1788 21.7149 20.3183 21.8569L18.8089 18.3011C19.1508 18.0444 19.4168 17.7 19.5789 17.3044C20.0764 16.0773 19.4851 14.6792 18.258 14.1817C17.2431 13.7702 16.0785 14.0986 15.4281 14.9796L13.3622 14.145C16.3836 9.70217 22.092 7.96427 27.0766 9.96966ZM31.1659 20.6904C30.9174 21.3055 30.2173 21.6026 29.6022 21.3541C28.9871 21.1056 28.69 20.4056 28.9385 19.7904C29.187 19.1753 29.8871 18.8782 30.5022 19.1267C31.1173 19.3752 31.4144 20.0753 31.1659 20.6904ZM21.7839 24.6728C21.5354 25.2879 20.8353 25.5851 20.2202 25.3365C19.6051 25.088 19.3079 24.388 19.5565 23.7729C19.805 23.1578 20.505 22.8606 21.1201 23.1091C21.7353 23.3577 22.0324 24.0577 21.7839 24.6728ZM18.4652 16.8545C18.2167 17.4696 17.5166 17.7667 16.9015 17.5182C16.2864 17.2697 15.9892 16.5696 16.2378 15.9545C16.4863 15.3394 17.1863 15.0423 17.8014 15.2908C18.4166 15.5393 18.7137 16.2393 18.4652 16.8545ZM24.2049 31.878C22.2796 32.1158 20.3254 31.8583 18.5273 31.13C12.6864 28.7747 9.86062 22.1305 12.2159 16.2896C12.3679 15.9126 12.5399 15.544 12.7313 15.1855L14.9782 16.0933C14.8352 17.176 15.4406 18.2189 16.4516 18.6318C16.8488 18.79 17.2813 18.8379 17.7034 18.7703L19.2128 22.3261C18.8709 22.5828 18.6049 22.9272 18.4428 23.3228C17.9458 24.553 18.5401 25.9532 19.7703 26.4502C21.0004 26.9472 22.4006 26.3529 22.8976 25.1227C23.0558 24.7255 23.1037 24.293 23.0361 23.8709L28.1556 21.6978C28.4123 22.0396 28.7567 22.3056 29.1523 22.4677C30.3825 22.9648 31.7826 22.3704 32.2796 21.1403C32.4379 20.7431 32.4857 20.3105 32.4181 19.8884L34.1223 19.1655C34.8942 25.4146 30.454 31.1062 24.2049 31.878Z" fill="white"/>
<path d="M40.0978 17.8222C41.1119 18.2275 42.2718 17.8978 42.9211 17.0196L46.3412 18.4015L46.7912 17.2877L43.371 15.9059C43.514 14.8231 42.9087 13.7803 41.8976 13.3674C40.6675 12.8703 39.2673 13.4647 38.7703 14.6948C38.6121 15.092 38.5642 15.5246 38.6318 15.9467L37.2581 16.5298C35.0409 8.53938 26.7659 3.85929 18.7755 6.07652C10.7851 8.29376 6.105 16.5688 8.32224 24.5592C10.4152 32.1015 17.9511 36.7707 25.6365 35.2869L26.6381 37.6464L27.1073 38.752L29.7789 45.0457C30.4583 46.6464 32.3067 47.3932 33.9074 46.7138C35.5081 46.0343 36.2549 44.186 35.5754 42.5853L32.9039 36.2915L32.4346 35.186L31.433 32.8264C36.2728 29.4365 38.6648 23.5161 37.5382 17.7156L39.1018 17.0519C39.3583 17.3937 39.7025 17.6599 40.0978 17.8222ZM41.4477 14.4811C42.0628 14.7296 42.3599 15.4296 42.1114 16.0447C41.8629 16.6598 41.1628 16.957 40.5477 16.7085C39.9326 16.46 39.6355 15.7599 39.884 15.1448C40.1325 14.5297 40.8326 14.2326 41.4477 14.4811ZM34.4699 43.0545C34.9014 44.0398 34.4525 45.1885 33.4671 45.62C32.4818 46.0515 31.3332 45.6025 30.9017 44.6172C30.8957 44.6037 30.89 44.5902 30.8844 44.5765L28.2128 38.2827L31.7983 36.7607L34.4699 43.0545ZM31.3291 35.6552L27.7436 37.1772L26.825 35.013C26.9278 34.9846 27.0281 34.9481 27.1304 34.9175C27.2328 34.887 27.3524 34.8491 27.4635 34.8131C27.6268 34.7599 27.789 34.7049 27.95 34.6462C28.0332 34.6151 28.1136 34.5828 28.1957 34.5512C28.5104 34.4296 28.8208 34.2978 29.1268 34.1559C29.2066 34.1188 29.2857 34.0834 29.3659 34.0452C29.5199 33.9701 29.6721 33.8917 29.8238 33.8112C29.927 33.7569 30.0291 33.7013 30.1303 33.6441C30.2226 33.592 30.3186 33.5453 30.4105 33.4911L31.3291 35.6552ZM30.2147 32.1962C29.9403 32.3703 29.6623 32.5372 29.3779 32.6911C29.295 32.736 29.2091 32.7771 29.125 32.8202C28.8745 32.9496 28.6208 33.0708 28.364 33.1838C28.252 33.2335 28.1391 33.2814 28.0255 33.3275C27.7665 33.434 27.5031 33.5323 27.2353 33.6223C27.1465 33.6512 27.0569 33.6856 26.9668 33.7146C26.6585 33.8122 26.3454 33.8962 26.0295 33.9726C18.6011 35.7619 11.1286 31.1904 9.33936 23.762C7.55011 16.3336 12.1216 8.8611 19.55 7.07185C26.9785 5.2826 34.4509 9.85401 36.2402 17.2825C37.6246 23.0305 35.2035 29.0231 30.2147 32.1962Z" fill="white"/>
</g>
<defs>
<clipPath id="clip0">
<rect width="36.0488" height="36.0488" fill="white" transform="translate(14.4955 0.991455) rotate(22)"/>
</clipPath>
</defs>
</svg>
